<svg width="20" height="20" viewBox="0 0 20 20" fill="none" xmlns="http://www.w3.org/2000/svg">
<g clip-path="url(#clip0_198_605)">
<path d="M13.3333 16.667V3.33366C13.3333 2.89163 13.1577 2.46771 12.8451 2.15515C12.5326 1.84259 12.1087 1.66699 11.6666 1.66699H8.33329C7.89127 1.66699 7.46734 1.84259 7.15478 2.15515C6.84222 2.46771 6.66663 2.89163 6.66663 3.33366V16.667" stroke="#408CFF" stroke-width="2.08333" stroke-linecap="round" stroke-linejoin="round"/>
<path d="M16.6666 5H3.33329C2.41282 5 1.66663 5.74619 1.66663 6.66667V15C1.66663 15.9205 2.41282 16.6667 3.33329 16.6667H16.6666C17.5871 16.6667 18.3333 15.9205 18.3333 15V6.66667C18.3333 5.74619 17.5871 5 16.6666 5Z" stroke="#408CFF" stroke-width="2.08333" stroke-linecap="round" stroke-linejoin="round"/>
</g>
<defs>
<clipPath id="clip0_198_605">
<rect width="20" height="20" fill="white"/>
</clipPath>
</defs>
</svg>
