<svg width="20" height="20" viewBox="0 0 20 20" fill="none" xmlns="http://www.w3.org/2000/svg">
<g clip-path="url(#clip0_198_612)">
<path d="M16.6667 8.33366C16.6667 12.4945 12.0509 16.8278 10.5009 18.1662C10.3565 18.2747 10.1807 18.3335 10 18.3335C9.81938 18.3335 9.6436 18.2747 9.49921 18.1662C7.94921 16.8278 3.33337 12.4945 3.33337 8.33366C3.33337 6.56555 4.03575 4.86986 5.286 3.61961C6.53624 2.36937 8.23193 1.66699 10 1.66699C11.7682 1.66699 13.4638 2.36937 14.7141 3.61961C15.9643 4.86986 16.6667 6.56555 16.6667 8.33366Z" stroke="#408CFF" stroke-width="2.08333" stroke-linecap="round" stroke-linejoin="round"/>
<path d="M10 10.833C11.3807 10.833 12.5 9.71372 12.5 8.33301C12.5 6.9523 11.3807 5.83301 10 5.83301C8.61929 5.83301 7.5 6.9523 7.5 8.33301C7.5 9.71372 8.61929 10.833 10 10.833Z" stroke="#408CFF" stroke-width="2.08333" stroke-linecap="round" stroke-linejoin="round"/>
</g>
<defs>
<clipPath id="clip0_198_612">
<rect width="20" height="20" fill="white"/>
</clipPath>
</defs>
</svg>
