<svg width="30" height="30" viewBox="0 0 30 30" fill="none" xmlns="http://www.w3.org/2000/svg">
<path d="M0 15C0 6.71573 6.71573 0 15 0C23.2843 0 30 6.71573 30 15C30 23.2843 23.2843 30 15 30C6.71573 30 0 23.2843 0 15Z" fill="url(#paint0_linear_108_5793)"/>
<path d="M14.099 6.57942C14.1382 6.36914 14.2498 6.17921 14.4144 6.04254C14.5789 5.90587 14.7861 5.83105 15 5.83105C15.214 5.83105 15.4211 5.90587 15.5857 6.04254C15.7503 6.17921 15.8618 6.36914 15.9011 6.57942L16.8645 11.6742C16.933 12.0365 17.109 12.3696 17.3696 12.6303C17.6303 12.891 17.9635 13.067 18.3257 13.1354L23.4205 14.0988C23.6308 14.1381 23.8207 14.2497 23.9574 14.4143C24.0941 14.5788 24.1689 14.786 24.1689 14.9999C24.1689 15.2138 24.0941 15.421 23.9574 15.5856C23.8207 15.7501 23.6308 15.8617 23.4205 15.901L18.3257 16.8644C17.9635 16.9328 17.6303 17.1089 17.3696 17.3695C17.109 17.6302 16.933 17.9634 16.8645 18.3256L15.9011 23.4204C15.8618 23.6307 15.7503 23.8206 15.5857 23.9573C15.4211 24.094 15.214 24.1688 15 24.1688C14.7861 24.1688 14.5789 24.094 14.4144 23.9573C14.2498 23.8206 14.1382 23.6307 14.099 23.4204L13.1355 18.3256C13.0671 17.9634 12.8911 17.6302 12.6304 17.3695C12.3698 17.1089 12.0366 16.9328 11.6744 16.8644L6.57954 15.901C6.36926 15.8617 6.17934 15.7501 6.04266 15.5856C5.90599 15.421 5.83118 15.2138 5.83118 14.9999C5.83118 14.786 5.90599 14.5788 6.04266 14.4143C6.17934 14.2497 6.36926 14.1381 6.57954 14.0988L11.6744 13.1354C12.0366 13.067 12.3698 12.891 12.6304 12.6303C12.8911 12.3696 13.0671 12.0365 13.1355 11.6742L14.099 6.57942Z" stroke="white" stroke-width="1.33333" stroke-linecap="round" stroke-linejoin="round"/>
<path d="M22.3334 5.8335V9.50016" stroke="white" stroke-width="1.33333" stroke-linecap="round" stroke-linejoin="round"/>
<path d="M24.1667 7.6665H20.5" stroke="white" stroke-width="1.33333" stroke-linecap="round" stroke-linejoin="round"/>
<path d="M7.66671 24.1667C8.67923 24.1667 9.50004 23.3459 9.50004 22.3333C9.50004 21.3208 8.67923 20.5 7.66671 20.5C6.65419 20.5 5.83337 21.3208 5.83337 22.3333C5.83337 23.3459 6.65419 24.1667 7.66671 24.1667Z" stroke="white" stroke-width="1.33333" stroke-linecap="round" stroke-linejoin="round"/>
<defs>
<linearGradient id="paint0_linear_108_5793" x1="0" y1="0" x2="30" y2="30" gradientUnits="userSpaceOnUse">
<stop stop-color="#74D4FF"/>
<stop offset="1" stop-color="#51A2FF"/>
</linearGradient>
</defs>
</svg>
