<svg width="243" height="85" viewBox="0 0 243 85" fill="none" xmlns="http://www.w3.org/2000/svg">
<path d="M2.34045 18.0848C2.34045 16.1779 2.58681 14.4555 3.07953 12.8562C3.57225 11.3183 4.37292 9.96506 5.48154 8.85782C6.59016 7.75059 8.00672 6.8894 9.85442 6.27427C11.6405 5.72065 13.8578 5.41309 16.5677 5.41309C19.1545 5.41309 21.4333 5.72065 23.281 6.27427C25.0671 6.8894 26.5453 7.75059 27.6539 8.85782C28.7625 9.96506 29.5632 11.3183 30.0559 12.8562C30.5486 14.4555 30.795 16.1779 30.795 18.0848V43.0591C30.795 45.0276 30.5486 46.7499 30.0559 48.2878C29.5632 49.8256 28.7625 51.1789 27.6539 52.2861C26.5453 53.3933 25.0671 54.2545 23.281 54.8697C21.4333 55.4233 19.1545 55.7309 16.5677 55.7309C13.8578 55.7309 11.6405 55.4233 9.85442 54.8697C8.00672 54.2545 6.59016 53.3933 5.48154 52.2861C4.37292 51.1789 3.57225 49.8256 3.07953 48.2878C2.58681 46.7499 2.34045 45.0276 2.34045 43.0591V18.0848ZM12.8107 44.3509C12.8107 45.8887 13.0571 47.0575 13.6114 47.9187C14.1041 48.7799 15.0896 49.2105 16.5677 49.2105C17.9843 49.2105 18.9697 48.7799 19.524 47.9187C20.0167 47.0575 20.3247 45.8887 20.3247 44.3509V16.793C20.3247 15.3167 20.0167 14.0864 19.524 13.2253C18.9697 12.3641 17.9843 11.9335 16.5677 11.9335C15.0896 11.9335 14.1041 12.3641 13.6114 13.2253C13.0571 14.0864 12.8107 15.3167 12.8107 16.793V44.3509ZM41.1421 56.9611C40.2798 56.9611 39.7255 56.7766 39.4176 56.4075C39.048 56.0384 38.9248 55.4848 38.9248 54.7466V7.62756C38.9248 6.8894 39.048 6.33578 39.4176 5.9667C39.7255 5.59763 40.2798 5.41309 41.1421 5.41309H47.1779C47.9785 5.41309 48.5329 5.59763 48.9024 5.9667C49.2103 6.33578 49.3951 6.8894 49.3951 7.62756V54.7466C49.3951 55.4848 49.2103 56.0384 48.9024 56.4075C48.5329 56.7766 47.9785 56.9611 47.1779 56.9611H41.1421ZM57.2858 17.8387C57.2858 17.1006 57.409 16.547 57.7785 16.1779C58.0865 15.8088 58.6408 15.6243 59.503 15.6243H92.9463V12.4871H59.503C58.6408 12.4871 58.0865 12.3026 57.7785 11.9335C57.409 11.5644 57.2858 11.0108 57.2858 10.2726V7.62756C57.2858 6.8894 57.409 6.33578 57.7785 5.9667C58.0865 5.59763 58.6408 5.41309 59.503 5.41309H101.199C102 5.41309 102.554 5.59763 102.924 5.9667C103.232 6.33578 103.417 6.8894 103.417 7.62756V20.5453C103.417 21.2835 103.232 21.8371 102.924 22.2062C102.554 22.5753 102 22.7598 101.199 22.7598H67.6945V25.897H101.199C102 25.897 102.554 26.0815 102.924 26.4506C103.232 26.8197 103.417 27.3733 103.417 28.1114V30.818C103.417 31.5562 103.232 32.1098 102.924 32.4789C102.554 32.848 102 33.0325 101.199 33.0325H59.503C58.6408 33.0325 58.0865 32.848 57.7785 32.4789C57.409 32.1098 57.2858 31.5562 57.2858 30.818V17.8387ZM85.5555 44.9045V54.7466C85.5555 55.4848 85.3708 56.0384 85.0628 56.4075C84.6933 56.7766 84.139 56.9611 83.3383 56.9611H77.3641C76.5018 56.9611 75.9475 56.7766 75.6396 56.4075C75.27 56.0384 75.1469 55.4848 75.1469 54.7466V44.9045H59.1951C58.456 44.9045 57.9017 44.7815 57.5321 44.4124C57.1626 44.1049 56.9778 43.5512 56.9778 42.6901V39.9835C56.9778 39.1838 57.1626 38.6302 57.5321 38.2611C57.9017 37.9535 58.456 37.769 59.1951 37.769H101.507C102.246 37.769 102.801 37.9535 103.17 38.2611C103.54 38.6302 103.725 39.1838 103.725 39.9835V42.6901C103.725 43.5512 103.54 44.1049 103.17 44.4124C102.801 44.7815 102.246 44.9045 101.507 44.9045H85.5555ZM112.786 56.9611C112.047 56.9611 111.492 56.7766 111.123 56.469C110.753 56.0999 110.568 55.5463 110.568 54.7466V52.0401C110.568 51.1789 110.753 50.6253 111.123 50.3177C111.492 49.9486 112.047 49.8256 112.786 49.8256H128.737V38.8762H113.402C112.539 38.8762 111.985 38.6917 111.677 38.3226C111.307 37.9535 111.184 37.3999 111.184 36.6618V7.62756C111.184 6.8894 111.307 6.33578 111.677 5.9667C111.985 5.59763 112.539 5.41309 113.402 5.41309H154.482C155.283 5.41309 155.837 5.59763 156.207 5.9667C156.514 6.33578 156.699 6.8894 156.699 7.62756V36.6618C156.699 37.3999 156.514 37.9535 156.207 38.3226C155.837 38.6917 155.283 38.8762 154.482 38.8762H139.146V49.8256H155.098C155.837 49.8256 156.391 49.9486 156.761 50.3177C157.13 50.6253 157.315 51.1789 157.315 52.0401V54.7466C157.315 55.5463 157.13 56.0999 156.761 56.469C156.391 56.7766 155.837 56.9611 155.098 56.9611H112.786ZM121.655 31.7407H146.229V12.4871H121.655V31.7407Z" fill="#004094"/>
<path d="M192.048 20.6906C192.048 14.5137 187.035 9.50635 180.85 9.50635C174.666 9.50635 169.652 14.5137 169.652 20.6906V44.1774C169.652 50.3543 174.666 55.3616 180.85 55.3616C187.035 55.3616 192.048 50.3543 192.048 44.1774V20.6906Z" stroke="#B9D9EB" stroke-width="10"/>
<path d="M177.345 48.2158C176.33 46.601 175.621 45.0116 175.186 43.3955C174.785 41.8315 174.743 40.2601 175.092 38.7335C175.44 37.207 176.182 35.7253 177.419 34.2228C178.636 32.8053 180.351 31.3671 182.645 29.9275C184.836 28.5536 186.93 27.6035 188.789 27.0908C190.63 26.663 192.34 26.6071 193.868 26.9559C195.397 27.3046 196.795 28.0253 198.032 29.0659C199.3 30.1585 200.426 31.4863 201.441 33.1011L214.74 54.2503C215.788 55.9172 216.497 57.5067 216.899 59.0707C217.301 60.6347 217.344 62.2061 216.994 63.7326C216.645 65.2591 215.852 66.7736 214.666 68.2432C213.397 69.6936 211.631 71.1645 209.44 72.5386C207.146 73.978 205.104 74.8953 203.297 75.3752C201.404 75.8358 199.746 75.8591 198.217 75.5102C196.689 75.1615 195.29 74.4408 194.055 73.4002C192.819 72.3596 191.692 71.032 190.644 69.3651L177.345 48.2158ZM228.82 61.8354C228.09 62.2934 227.522 62.4315 227.065 62.2826C226.555 62.1664 226.156 61.7629 225.763 61.1379L200.671 21.2356C200.278 20.6105 200.088 20.0763 200.204 19.5675C200.268 19.0913 200.64 18.6405 201.37 18.1826L206.481 14.9764C207.159 14.5512 207.727 14.4129 208.236 14.5292C208.693 14.6782 209.145 15.0488 209.538 15.6739L219.889 32.1349L222.862 30.2701C223.488 29.8775 224.055 29.7393 224.532 29.8035C225.041 29.9197 225.493 30.2905 225.918 30.9677L228.965 35.8121C229.423 36.5414 229.562 37.1084 229.413 37.5651C229.297 38.074 228.893 38.4726 228.267 38.8652L225.293 40.73L234.629 55.5762C235.022 56.2013 235.161 56.7682 235.096 57.2443C234.98 57.7532 234.609 58.2039 233.931 58.6292L228.82 61.8354ZM200.198 64.8972C201.018 66.1995 201.849 67.0584 202.776 67.4933C203.653 67.9608 204.717 67.802 205.968 67.0168C207.168 66.2644 207.773 65.3762 207.784 64.3525C207.743 63.3615 207.381 62.2082 206.562 60.9059L191.887 37.5688C191.101 36.3186 190.185 35.4405 189.309 34.9728C188.381 34.538 187.317 34.6968 186.118 35.4493C184.866 36.2344 184.261 37.1226 184.301 38.1136C184.291 39.1373 184.738 40.31 185.524 41.5602L200.198 64.8972Z" fill="#0077C8"/>
<path d="M179.279 51.3334C184.282 51.3706 187.569 49.2105 188.129 44.7368L193.728 52.0066C192.048 55.921 186.449 58.7171 182.673 59.1264L179.279 51.3334Z" fill="#B9D9EB"/>
</svg>
