<svg width="16" height="14" viewBox="0 0 16 14" fill="none" xmlns="http://www.w3.org/2000/svg">
<path d="M2.63617 6.60956C2.63617 6.32483 2.86699 6.09401 3.15172 6.09401H12.4317C12.7164 6.09401 12.9472 6.32483 12.9472 6.60956V10.0819C12.9472 10.8063 12.5672 11.4776 11.946 11.8503L8.85272 13.7063C8.19961 14.0981 7.38377 14.0981 6.73071 13.7063L3.63739 11.8503C3.01624 11.4776 2.63617 10.8063 2.63617 10.0819V6.60956Z" fill="#408CFF"/>
<path d="M0.242308 5.50031C-0.0807692 5.29839 -0.0807692 4.82786 0.242308 4.62594L7.51844 0.0783603C7.68562 -0.0261218 7.89776 -0.0261218 8.06491 0.0783706L15.341 4.62594C15.6641 4.82787 15.6641 5.29838 15.341 5.50031L8.06491 10.0479C7.89776 10.1524 7.68562 10.1524 7.51845 10.0479L0.242308 5.50031Z" fill="#98BFFA"/>
</svg>
