<svg width="10" height="14" viewBox="0 0 10 14" fill="none" xmlns="http://www.w3.org/2000/svg">
<path d="M9 0C9.5523 0 10 0.44772 10 1V11C10 11.5523 9.5523 12 9 12H1C0.943 12 0.8874 11.9935 0.83301 11.9844V12C0.83301 12.5522 1.28087 12.9998 1.83301 13H9.833C9.8899 13 9.9457 12.9935 10 12.9844V13C10 13.5523 9.5523 14 9 14H1C0.44772 14 0 13.5523 0 13V1C0 0.44772 0.44772 0 1 0H9ZM3 2C2.72386 2 2.5 2.22386 2.5 2.5C2.5 2.77614 2.72386 3 3 3H7C7.2761 3 7.5 2.77614 7.5 2.5C7.5 2.22386 7.2761 2 7 2H3Z" fill="#408CFF"/>
</svg>
