<svg width="10" height="14" viewBox="0 0 10 14" fill="none" xmlns="http://www.w3.org/2000/svg">
<path d="M0 2.77252C0 2.29905 0.26751 1.86622 0.69099 1.65448L4 0V14H1.25C0.55964 14 0 13.4404 0 12.75V2.77252Z" fill="#408CFF"/>
<path d="M10 2.90093C10 2.36289 9.6557 1.88522 9.1453 1.71507L4 0V14H8.75C9.4404 14 10 13.4404 10 12.75V2.90093Z" fill="#98BFFA"/>
<path d="M8.5 7.36041C8.5 7.14521 8.3623 6.9541 8.1581 6.88605L5.8291 6.1097C5.6672 6.05573 5.5 6.17623 5.5 6.34687V6.63963C5.5 6.85485 5.6377 7.04591 5.8419 7.11401L8.1709 7.89031C8.3328 7.94431 8.5 7.82381 8.5 7.65311V7.36041Z" fill="#408CFF"/>
<path d="M8.5 5.36039C8.5 5.14517 8.3623 4.9541 8.1581 4.88605L5.8291 4.1097C5.6672 4.05573 5.5 4.17623 5.5 4.34687V4.63963C5.5 4.85485 5.6377 5.04592 5.8419 5.11397L8.1709 5.89032C8.3328 5.94429 8.5 5.82379 8.5 5.65315V5.36039Z" fill="#408CFF"/>
<path d="M8.5 3.36039C8.5 3.14517 8.3623 2.9541 8.1581 2.88605L5.8291 2.1097C5.6672 2.05573 5.5 2.17623 5.5 2.34687V2.63963C5.5 2.85485 5.6377 3.04592 5.8419 3.11397L8.1709 3.89032C8.3328 3.94429 8.5 3.82379 8.5 3.65315V3.36039Z" fill="#408CFF"/>
</svg>
