<svg width="19" height="17" viewBox="0 0 19 17" fill="none" xmlns="http://www.w3.org/2000/svg">
<path d="M1.05551 5.71397C1.05553 4.77427 1.34059 3.85669 1.87305 3.0824C2.4055 2.30811 3.16031 1.71355 4.03776 1.37724C4.91522 1.04093 5.87405 0.978701 6.78761 1.19876C7.70118 1.41883 8.5265 1.91083 9.15458 2.60979C9.19882 2.65709 9.2523 2.6948 9.31171 2.72058C9.37112 2.74637 9.4352 2.75967 9.49996 2.75967C9.56472 2.75967 9.6288 2.74637 9.68821 2.72058C9.74762 2.6948 9.8011 2.65709 9.84534 2.60979C10.4714 1.90629 11.297 1.41015 12.212 1.18741C13.1271 0.964676 14.0882 1.02591 14.9676 1.36296C15.847 1.70001 16.6029 2.29689 17.1347 3.07415C17.6665 3.85142 17.9489 4.77221 17.9444 5.71397C17.9444 7.64775 16.6777 9.09175 15.4111 10.3584L10.7734 14.8449C10.616 15.0257 10.422 15.1708 10.2043 15.2708C9.9865 15.3708 9.74995 15.4233 9.51034 15.4248C9.27072 15.4263 9.03353 15.3768 8.81451 15.2796C8.5955 15.1824 8.39967 15.0397 8.24005 14.861L3.58885 10.3584C2.32218 9.09175 1.05551 7.65619 1.05551 5.71397Z" stroke="#408CFF" stroke-width="2.08333" stroke-linecap="round" stroke-linejoin="round"/>
</svg>
